<?xml version="1.0" standalone="no"?>
<!DOCTYPE svg PUBLIC "-//W3C//DTD SVG 20010904//EN"
 "http://www.w3.org/TR/2001/REC-SVG-20010904/DTD/svg10.dtd">
<svg version="1.0" xmlns="http://www.w3.org/2000/svg"
 width="1031.000000pt" height="1031.000000pt" viewBox="0 0 1031.000000 1031.000000"
 preserveAspectRatio="xMidYMid meet">
<metadata>
Created by potrace 1.14, written by Peter Selinger 2001-2017
</metadata>
<g transform="translate(0.000000,1031.000000) scale(0.100000,-0.100000)"
fill="#000000" stroke="none">
<path d="M4809 10295 c-2 -2 -42 -6 -89 -10 -47 -3 -98 -8 -115 -10 -89 -9
-143 -16 -170 -21 -16 -3 -41 -7 -55 -9 -29 -3 -142 -22 -185 -31 -16 -3 -39
-7 -50 -9 -11 -2 -31 -6 -45 -9 -14 -4 -36 -8 -50 -11 -116 -22 -348 -87 -525
-146 -99 -33 -190 -64 -202 -69 -49 -21 -70 -30 -133 -55 -36 -15 -85 -36
-110 -47 -25 -11 -74 -34 -110 -50 -209 -95 -480 -250 -710 -406 -132 -90
-283 -202 -288 -214 -2 -5 -8 -8 -13 -8 -5 0 -17 -8 -27 -17 -10 -10 -39 -36
-66 -58 -72 -59 -85 -70 -160 -138 -96 -86 -278 -268 -356 -356 -36 -40 -74
-83 -85 -96 -38 -42 -70 -80 -118 -140 -26 -33 -53 -67 -60 -75 -7 -8 -23 -31
-37 -50 -13 -19 -29 -40 -35 -47 -20 -24 -31 -39 -84 -118 -30 -44 -60 -83
-65 -87 -7 -5 -7 -8 -1 -8 7 0 7 -3 0 -8 -11 -7 -11 -9 -77 -117 -24 -38 -46
-71 -50 -73 -5 -2 -8 -8 -8 -14 0 -6 -15 -36 -34 -67 -69 -114 -243 -467 -271
-551 -1 -3 -6 -16 -12 -30 -22 -52 -55 -135 -57 -145 -1 -5 -9 -26 -18 -45 -8
-19 -18 -48 -23 -65 -9 -33 -9 -34 -17 -55 -19 -51 -49 -143 -62 -192 -9 -32
-23 -84 -32 -115 -15 -54 -18 -68 -29 -118 -8 -33 -15 -64 -20 -87 -3 -13 -10
-45 -15 -73 -6 -27 -13 -61 -16 -75 -3 -14 -7 -41 -10 -60 -2 -19 -7 -43 -10
-53 -3 -10 -7 -32 -9 -50 -3 -18 -7 -52 -10 -77 -16 -119 -26 -205 -31 -255
-5 -59 -16 -316 -14 -345 1 -14 2 -40 3 -58 1 -19 -1 -36 -4 -38 -4 -2 -3 -19
1 -38 4 -19 6 -37 3 -39 -4 -5 -5 -79 0 -117 2 -14 0 -37 -4 -52 -4 -14 -5
-29 -3 -31 3 -3 7 -51 10 -108 2 -57 6 -122 8 -144 14 -138 18 -183 22 -210 3
-16 7 -48 10 -70 6 -42 29 -194 40 -255 14 -86 55 -267 89 -395 15 -55 30
-113 34 -130 10 -37 105 -319 122 -360 7 -16 13 -32 13 -35 4 -14 42 -108 53
-130 7 -14 13 -28 13 -33 0 -4 22 -55 50 -113 27 -58 50 -110 50 -115 0 -5 5
-9 10 -9 6 0 10 -5 10 -12 0 -11 60 -132 103 -208 11 -19 31 -55 45 -80 32
-58 130 -214 182 -290 138 -203 351 -470 484 -607 17 -17 63 -64 102 -105 61
-63 148 -145 263 -246 14 -13 39 -35 55 -50 29 -27 118 -98 176 -142 18 -14
38 -30 44 -35 6 -6 33 -26 60 -45 27 -19 67 -48 90 -64 72 -51 240 -162 276
-182 19 -10 37 -21 40 -24 8 -8 175 -103 254 -144 38 -20 76 -42 84 -49 8 -6
17 -11 18 -10 2 1 39 -14 81 -34 43 -21 80 -38 83 -38 3 0 16 -7 30 -15 14 -8
27 -15 30 -16 11 -2 47 -17 85 -34 105 -47 136 -60 153 -64 9 -1 31 -9 47 -16
98 -41 495 -166 585 -184 14 -3 40 -9 58 -15 17 -5 32 -8 32 -6 0 3 11 0 24
-5 13 -5 43 -12 67 -15 24 -4 46 -8 49 -10 7 -4 89 -18 113 -19 9 0 17 -3 17
-6 0 -3 10 -5 23 -6 30 -2 131 -16 137 -19 3 -2 42 -7 85 -10 44 -4 83 -9 86
-11 31 -18 764 -27 924 -11 44 4 100 10 125 12 95 10 147 16 204 25 33 5 62 8
64 5 2 -2 15 0 28 5 12 5 40 11 61 14 21 3 48 7 59 10 12 2 37 7 55 10 19 3
45 8 59 11 14 4 34 8 45 10 11 2 31 6 45 9 14 3 34 8 45 10 11 2 49 12 85 21
36 9 72 18 80 20 8 2 28 8 43 14 16 6 33 9 38 5 5 -3 9 -1 9 4 0 5 6 9 13 9 6
0 39 9 72 19 33 10 63 19 68 20 4 1 8 2 10 3 4 3 142 51 152 54 22 6 121 44
250 98 194 80 517 245 655 334 220 140 483 326 531 374 9 9 36 32 60 51 189
153 385 346 614 606 6 6 24 28 40 49 17 20 35 42 40 49 6 6 26 31 45 56 19 25
39 50 45 56 5 7 19 24 30 40 11 15 32 43 48 62 15 19 27 39 27 43 0 5 8 17 18
27 15 15 50 68 168 252 100 156 266 478 351 680 8 19 21 49 28 65 12 26 57
141 60 155 1 3 6 16 12 30 5 14 20 57 33 95 12 39 27 79 32 90 4 11 10 29 13
40 2 11 13 47 24 80 17 53 81 298 95 365 3 14 16 78 30 142 14 65 27 137 30
160 2 24 5 43 6 43 1 0 3 9 4 20 2 11 9 63 16 115 7 52 14 109 16 125 1 17 6
66 11 110 10 102 10 817 0 910 -4 39 -8 77 -8 85 -2 35 -28 241 -35 275 -3 11
-7 36 -10 55 -5 37 -11 69 -20 110 -3 14 -7 36 -9 50 -6 35 -13 69 -19 88 -3
9 -8 33 -11 52 -3 19 -15 68 -26 110 -19 70 -66 242 -73 265 -2 6 -4 12 -5 15
0 3 -22 64 -47 135 -25 72 -46 135 -48 140 -2 6 -8 22 -14 37 -68 165 -89 216
-125 293 -70 151 -210 418 -233 446 -8 8 -14 19 -14 22 0 10 -63 112 -72 115
-4 2 -8 8 -8 13 0 11 -151 240 -170 259 -3 3 -22 28 -42 57 -20 28 -43 60 -52
70 -8 10 -47 59 -87 108 -186 230 -492 543 -664 677 -16 13 -37 30 -46 38 -81
75 -494 370 -519 370 -5 0 -10 5 -10 10 0 6 -7 10 -15 10 -8 0 -15 3 -15 8 0
4 -15 13 -32 21 -18 8 -40 20 -48 27 -8 7 -40 26 -70 42 -30 17 -75 41 -100
55 -362 200 -898 398 -1300 482 -145 30 -278 56 -308 60 -20 2 -55 7 -77 10
-22 4 -53 8 -70 10 -16 2 -30 4 -30 5 0 1 -20 3 -45 5 -25 2 -67 6 -95 10 -27
4 -70 9 -95 11 -58 6 -766 14 -771 9z"/>
</g>
</svg>
